<?xml version="1.0" standalone="no"?>
<!DOCTYPE svg PUBLIC "-//W3C//DTD SVG 20010904//EN"
 "http://www.w3.org/TR/2001/REC-SVG-20010904/DTD/svg10.dtd">
<svg version="1.0" xmlns="http://www.w3.org/2000/svg"
 width="700.000000pt" height="700.000000pt" viewBox="0 0 700.000000 700.000000"
 preserveAspectRatio="xMidYMid meet">
<metadata>
Created by potrace 1.11, written by Peter Selinger 2001-2013
</metadata>
<g transform="translate(0.000000,700.000000) scale(0.100000,-0.100000)"
fill="#000000" stroke="none">
<path d="M2394 6850 c-28 -11 -302 -160 -610 -331 -307 -171 -586 -326 -619
-344 -33 -18 -230 -128 -439 -244 -208 -116 -380 -211 -381 -211 -1 0 -28 -15
-60 -34 -56 -34 -56 -35 -33 -49 25 -15 256 -145 348 -195 30 -16 147 -81 260
-144 113 -63 225 -126 250 -140 25 -13 315 -175 645 -358 330 -184 623 -342
650 -352 64 -22 100 -22 150 1 85 39 138 123 134 214 -4 102 -44 143 -244 254
-136 76 -216 120 -425 236 -167 92 -219 121 -275 152 -22 13 -162 90 -312 173
-149 83 -281 156 -292 164 -18 13 -16 15 37 43 31 16 82 43 112 61 30 17 81
45 113 63 121 66 174 96 247 136 41 23 100 56 130 72 418 231 772 430 804 451
65 45 96 91 103 155 17 167 -139 288 -293 227z"/>
<path d="M3189 6856 c-48 -17 -86 -48 -118 -94 -22 -32 -26 -48 -26 -113 0
-86 19 -124 84 -171 28 -20 717 -406 996 -558 28 -15 122 -67 210 -116 88 -49
176 -97 196 -108 44 -23 74 -45 68 -49 -2 -2 -94 -53 -204 -114 -110 -61 -216
-119 -235 -130 -19 -11 -62 -35 -95 -53 -33 -18 -73 -40 -90 -50 -16 -9 -59
-33 -95 -53 -152 -82 -683 -378 -719 -401 -93 -59 -121 -106 -121 -200 1 -120
121 -229 234 -212 44 7 155 59 278 131 32 19 86 49 120 68 35 18 166 91 292
161 126 70 252 140 280 156 28 15 182 101 341 190 160 89 324 180 365 203 41
22 91 49 110 60 19 11 55 31 80 45 25 13 59 32 75 42 17 10 50 29 75 42 170
93 200 111 204 117 5 7 -22 23 -209 124 -38 21 -83 47 -100 56 -16 10 -55 32
-85 48 -30 17 -73 40 -95 53 -22 12 -62 35 -90 50 -27 15 -167 92 -310 172
-143 80 -287 160 -320 178 -33 18 -134 74 -225 125 -91 51 -192 107 -225 125
-33 18 -147 82 -254 142 -267 148 -311 163 -392 134z"/>
<path d="M3753 3585 c-98 -32 -159 -70 -235 -147 -91 -93 -144 -191 -163 -306
-3 -19 -6 -222 -7 -453 -2 -495 0 -488 -90 -513 -29 -8 -71 -17 -93 -21 -114
-19 -183 -113 -171 -235 13 -127 59 -166 251 -210 57 -13 81 -33 94 -77 5 -17
9 -232 10 -478 0 -382 3 -455 16 -503 18 -62 59 -148 81 -170 8 -7 14 -17 14
-21 0 -5 30 -38 66 -75 143 -143 375 -204 500 -131 67 40 118 133 108 200 -9
66 -19 87 -54 128 -42 48 -92 72 -167 81 -24 3 -56 12 -73 21 -59 30 -59 33
-60 481 -1 547 -5 587 -68 689 -13 22 -33 50 -44 61 -19 22 -19 22 16 71 46
65 72 127 84 204 6 35 11 248 11 472 2 508 -2 495 136 517 143 24 216 100 216
225 0 172 -170 257 -378 190z"/>
<path d="M5690 3590 c-131 -61 -169 -224 -79 -339 29 -36 89 -68 144 -76 76
-10 110 -26 135 -62 l24 -35 1 -437 c1 -240 5 -445 8 -456 3 -11 9 -35 12 -53
7 -39 42 -112 79 -161 14 -19 26 -38 26 -41 0 -4 -11 -20 -25 -36 -25 -29 -68
-111 -78 -149 -16 -58 -20 -148 -21 -550 -2 -421 -3 -442 -22 -479 -22 -43
-54 -59 -140 -71 -27 -3 -68 -17 -91 -31 -126 -73 -133 -277 -14 -358 48 -32
94 -44 167 -41 248 9 475 216 523 477 4 25 8 242 9 481 0 535 -6 510 141 537
33 6 75 17 93 25 71 29 118 108 119 198 1 122 -63 193 -198 217 -81 14 -80 14
-112 38 -22 16 -31 33 -36 64 -4 24 -8 232 -9 463 -2 231 -6 430 -10 443 -3
12 -8 30 -10 40 -15 63 -94 188 -162 256 -85 85 -220 144 -349 152 -67 4 -87
2 -125 -16z"/>
</g>
</svg>
